<svg width="33" height="33" viewBox="0 0 33 33" fill="none" xmlns="http://www.w3.org/2000/svg">
<path d="M24.0829 28.0644H9.07276C8.69018 28.0644 8.31956 27.8971 8.06252 27.6161C7.80547 27.3292 7.67994 26.9466 7.72178 26.564L9.2222 12.3011C9.29991 11.5598 9.9216 11.0039 10.6628 11.0039H12.7551C12.8866 11.0039 13.0001 11.1115 13.0001 11.249C13.0001 11.3865 12.8925 11.4941 12.7551 11.4941H10.6628C10.1667 11.4941 9.75422 11.8647 9.7064 12.3549L8.20598 26.6178C8.18207 26.8629 8.25978 27.108 8.42118 27.2933C8.58856 27.4786 8.82169 27.5802 9.06678 27.5802H24.0769C24.322 27.5802 24.5611 27.4726 24.7225 27.2933C24.8899 27.108 24.9676 26.8689 24.9377 26.6178L23.4373 12.3549C23.3835 11.8647 22.977 11.4941 22.4809 11.4941H21.9548C21.8233 11.4941 21.7097 11.3865 21.7097 11.249C21.7097 11.1115 21.8173 11.0039 21.9548 11.0039H22.4809C23.2221 11.0039 23.8438 11.5598 23.9215 12.3011L25.4219 26.564C25.4638 26.9466 25.3382 27.3292 25.0812 27.6161C24.8241 27.903 24.4595 28.0644 24.071 28.0644H24.0829Z" fill="#A38B51"/>
<path d="M20.3954 11.4941H14.334C14.2024 11.4941 14.0889 11.3865 14.0889 11.249C14.0889 11.1115 14.1965 11.0039 14.334 11.0039H20.3954C20.5269 11.0039 20.6405 11.1115 20.6405 11.249C20.6405 11.3865 20.5329 11.4941 20.3954 11.4941Z" fill="#A38B51"/>
<path d="M20.3954 13.0483C20.2639 13.0483 20.1503 12.9407 20.1503 12.8033V8.99542C20.1503 7.02276 18.5483 5.42072 16.5756 5.42072C14.603 5.42072 13.0009 7.02276 13.0009 8.99542V12.8033C13.0009 12.9348 12.8933 13.0483 12.7558 13.0483C12.6183 13.0483 12.5107 12.9407 12.5107 12.8033V8.99542C12.5107 6.75376 14.334 4.93652 16.5696 4.93652C18.8053 4.93652 20.6285 6.75974 20.6285 8.99542V12.8033C20.6285 12.9348 20.5209 13.0483 20.3834 13.0483H20.3954Z" fill="#A38B51"/>
<circle cx="16.5" cy="16.5" r="16.2" stroke="#A38B51" stroke-width="0.6"/>
</svg>
