<svg width="33" height="33" viewBox="0 0 33 33" fill="none" xmlns="http://www.w3.org/2000/svg">
<path d="M16.5016 6.1065C18.4949 6.1065 20.1258 7.69661 20.1258 9.64006C20.1258 11.5835 18.4949 13.1736 16.5016 13.1736C14.5083 13.1736 12.8775 11.5835 12.8775 9.64006C12.8775 7.69661 14.5083 6.1065 16.5016 6.1065ZM16.5016 5.51758C14.1459 5.51758 12.2734 7.34325 12.2734 9.64006C12.2734 11.9369 14.1459 13.7625 16.5016 13.7625C18.8573 13.7625 20.7298 11.9369 20.7298 9.64006C20.7298 7.34325 18.8573 5.51758 16.5016 5.51758Z" fill="#A38B51"/>
<path d="M25.198 25.4821C25.0289 25.4821 24.896 25.3525 24.896 25.1876C24.896 20.6411 21.755 15.9415 16.5 15.9415C11.245 15.9415 8.10403 20.6411 8.10403 25.1876C8.10403 25.3525 7.97114 25.4821 7.80201 25.4821C7.63289 25.4821 7.5 25.3525 7.5 25.1876C7.5 20.3525 10.8644 15.3525 16.5 15.3525C22.1356 15.3525 25.5 20.3525 25.5 25.1876C25.5 25.3525 25.3671 25.4821 25.198 25.4821Z" fill="#A38B51"/>
<circle cx="16.5" cy="16.5" r="16.2" stroke="#A38B51" stroke-width="0.6"/>
</svg>
