<svg width="33" height="33" viewBox="0 0 33 33" fill="none" xmlns="http://www.w3.org/2000/svg">
<path d="M24.6727 26.5491C24.4055 26.5491 24.0848 26.4422 23.8711 26.2285L19.7022 22.3807C19.4885 22.167 19.3281 21.8998 19.3281 21.5791C19.3281 21.2585 19.435 20.9913 19.6488 20.7241L20.2902 20.0294C20.5039 19.8156 20.7712 19.6553 21.0918 19.6553C21.4125 19.6553 21.6798 19.7622 21.947 19.9759L26.1158 23.8236C26.5968 24.2512 26.6503 24.9993 26.1158 25.4803L25.4744 26.175C25.2607 26.3888 24.9934 26.5491 24.6727 26.5491ZM21.1453 20.2966C20.985 20.2966 20.8781 20.35 20.7712 20.4569L20.1298 21.1516C20.0229 21.2585 19.9695 21.4188 19.9695 21.5791C19.9695 21.7395 19.9695 21.8463 20.1298 21.9532L24.2986 25.8009C24.4055 25.9078 24.5659 25.9613 24.7262 25.9613C24.8865 25.9613 24.9934 25.9613 25.1003 25.8009L25.7417 25.1062C25.9555 24.8925 25.9555 24.5184 25.7417 24.3046L21.5729 20.4569C21.466 20.35 21.3591 20.2966 21.1987 20.2966H21.1453Z" fill="#A38B51"/>
<path d="M13.8651 22.1618C12.0906 22.1618 10.3055 21.5259 8.89455 20.2326C5.89622 17.4911 5.68244 12.8204 8.42957 9.82237C11.1714 6.82435 15.8426 6.61593 18.8409 9.35743C21.8392 12.0989 22.0477 16.7696 19.3059 19.7677C17.8521 21.3549 15.8639 22.1618 13.8651 22.1618ZM13.8704 8.03745C12.0372 8.03745 10.2093 8.77493 8.87852 10.2339C6.35586 12.9861 6.54827 17.272 9.30075 19.789C12.0532 22.3061 16.3396 22.1137 18.8569 19.3615C21.3742 16.6093 21.1818 12.3234 18.4294 9.80633C17.136 8.61995 15.5005 8.03745 13.8651 8.03745H13.8704Z" fill="#A38B51"/>
<circle cx="16.5" cy="16.5" r="16.2" stroke="#A38B51" stroke-width="0.6"/>
</svg>
