<svg width="40" height="40" viewBox="0 0 40 40" fill="none" xmlns="http://www.w3.org/2000/svg">
<circle cx="20" cy="20" r="19.7" stroke="#9C9792" stroke-width="0.6"/>
<path d="M14.3403 13.3403H16.3442C16.3895 13.3405 16.429 13.3781 16.4292 13.4243C16.4292 13.4731 16.393 13.5091 16.3442 13.5093H14.3403C13.7894 13.5093 13.3289 13.9214 13.2749 14.4683L11.8374 28.1304V28.1313C11.8105 28.4068 11.8977 28.6832 12.0796 28.8921L12.0815 28.894C12.2705 29.1031 12.5344 29.2183 12.811 29.2183H27.189C27.4661 29.2182 27.7345 29.0961 27.9175 28.8931L27.9185 28.894C28.084 28.7108 28.1726 28.4791 28.1694 28.2339L28.1626 28.1284L26.7251 14.4683V14.4673C26.6652 13.923 26.2124 13.5093 25.6597 13.5093H25.1558C25.1104 13.509 25.0718 13.4707 25.0718 13.4243C25.072 13.3758 25.1073 13.3405 25.1558 13.3403H25.6597C26.2931 13.3403 26.8246 13.8146 26.8911 14.4478L28.3276 28.1099L28.3286 28.1108C28.364 28.4342 28.2578 28.7588 28.0396 29.0024C27.8222 29.2451 27.5132 29.3813 27.1831 29.3813H12.8169C12.5341 29.3813 12.2574 29.2733 12.0464 29.0864L11.9595 29.0015C11.7418 28.7579 11.6361 28.4337 11.6714 28.1108L11.6724 28.1099L13.1089 14.4478C13.1754 13.8146 13.7069 13.3403 14.3403 13.3403Z" fill="#9C9792" stroke="#9C9792" stroke-width="0.3"/>
<path d="M17.856 13.3403H23.6626C23.7079 13.3404 23.7473 13.378 23.7476 13.4243C23.7476 13.4731 23.7114 13.5092 23.6626 13.5093H17.856C17.8106 13.5091 17.772 13.4707 17.772 13.4243C17.7722 13.3758 17.8074 13.3405 17.856 13.3403Z" fill="#9C9792" stroke="#9C9792" stroke-width="0.3"/>
<path d="M19.9976 7.52856C22.0561 7.52856 23.7357 9.20731 23.7358 11.2659V14.9133C23.7358 14.9569 23.7005 14.9932 23.6567 14.9963C23.6137 14.9933 23.5776 14.9578 23.5776 14.9133V11.2659C23.5775 9.29357 21.9757 7.69165 20.0034 7.69165C18.0311 7.6917 16.4293 9.2936 16.4292 11.2659V14.9133C16.4292 14.9588 16.3907 14.9983 16.3442 14.9983C16.2956 14.9981 16.2603 14.9621 16.2603 14.9133V11.2659C16.2604 9.2018 17.9389 7.52869 19.9976 7.52856Z" fill="#9C9792" stroke="#9C9792" stroke-width="0.3"/>
<path d="M16.1699 20.9666H23.8329" stroke="#9C9792" stroke-width="0.4" stroke-linecap="round"/>
<path d="M20.0034 17.135L20.0034 24.798" stroke="#9C9792" stroke-width="0.4" stroke-linecap="round"/>
</svg>
