<svg width="59" height="39" viewBox="0 0 59 39" fill="none" xmlns="http://www.w3.org/2000/svg">
<path d="M36.4219 12.668C39.1082 12.668 41.2938 14.8507 41.2939 17.5332C41.2939 20.2158 39.1083 22.3984 36.4219 22.3984C33.7355 22.3984 31.5498 20.2158 31.5498 17.5332C31.5499 14.8507 33.7355 12.668 36.4219 12.668ZM36.4219 13.1494C34.0015 13.1494 32.0314 15.116 32.0312 17.5332C32.0312 19.9505 34.0014 21.918 36.4219 21.918C38.8423 21.918 40.8125 19.9505 40.8125 17.5332C40.8124 15.116 38.8423 13.1494 36.4219 13.1494Z" fill="#282315" stroke="#282315" stroke-width="0.1"/>
<path d="M36.4208 20.3473C34.8678 20.3473 33.6045 19.0856 33.6045 17.5336C33.6045 17.3733 33.7348 17.2432 33.8953 17.2432C34.0559 17.2432 34.1861 17.3733 34.1861 17.5336C34.1861 18.765 35.1889 19.7664 36.4208 19.7664C36.5814 19.7664 36.7117 19.8965 36.7117 20.0568C36.7117 20.2172 36.5814 20.3473 36.4208 20.3473Z" fill="#282315"/>
<path d="M45.9727 8.93604C48.1657 8.93604 49.95 10.7179 49.9502 12.9077C49.9502 15.0978 48.1658 16.8804 45.9727 16.8804C43.7795 16.8804 41.9951 15.0978 41.9951 12.9077C41.9953 10.7178 43.7796 8.93604 45.9727 8.93604ZM45.9727 9.41748C44.0456 9.41748 42.4768 10.9831 42.4766 12.9077C42.4766 14.8325 44.0454 16.3989 45.9727 16.3989C47.8999 16.3989 49.4688 14.8325 49.4688 12.9077C49.4685 10.9831 47.8997 9.41748 45.9727 9.41748Z" fill="#282315" stroke="#282315" stroke-width="0.1"/>
<path d="M45.9735 14.8278C44.9138 14.8278 44.0518 13.9669 44.0518 12.9086C44.0518 12.7483 44.182 12.6182 44.3426 12.6182C44.5031 12.6182 44.6334 12.7483 44.6334 12.9086C44.6334 13.6474 45.2348 14.2469 45.9735 14.2469C46.1341 14.2469 46.2644 14.377 46.2644 14.5373C46.2644 14.6976 46.1341 14.8278 45.9735 14.8278Z" fill="#282315"/>
<path d="M38.0361 6.06689C39.4532 6.06709 40.6055 7.21825 40.6055 8.6333C40.6055 10.0483 39.4532 11.1995 38.0361 11.1997C36.6189 11.1997 35.4658 10.0485 35.4658 8.6333C35.4658 7.21813 36.6189 6.06689 38.0361 6.06689ZM38.0361 6.54932C36.8849 6.54932 35.9474 7.48446 35.9473 8.63428C35.9473 9.78418 36.8848 10.7202 38.0361 10.7202C39.1873 10.72 40.124 9.78406 40.124 8.63428C40.1239 7.48458 39.1872 6.54951 38.0361 6.54932Z" fill="#282315" stroke="#282315" stroke-width="0.1"/>
<path d="M30.2987 36.983C30.1482 36.983 29.9977 36.983 29.8472 36.9801L23.6368 36.8818C21.4344 36.8558 18.0572 35.7966 15.0764 34.8617C13.8739 34.4845 12.7366 34.1276 11.8655 33.9036C11.6716 33.8545 11.5559 33.6566 11.6051 33.4644C11.6543 33.2707 11.8525 33.1551 12.0449 33.2043C12.9348 33.4326 14.0809 33.7924 15.2934 34.1724C18.0818 35.0467 21.5502 36.1348 23.6469 36.1593L29.8574 36.2576C34.686 36.3139 39.4075 35.4628 43.8859 33.7303L49.4554 31.5815C49.9502 31.3893 50.3337 31.0223 50.5363 30.5469C50.7302 30.0917 50.7331 29.5874 50.5421 29.1293C50.2642 28.4617 49.5972 28.0008 48.8418 27.9531C48.7232 27.9473 48.619 27.9487 48.5177 27.9588L36.1112 29.1524C35.913 29.1727 35.735 29.0267 35.7162 28.8273C35.6974 28.6293 35.8421 28.4516 36.0418 28.4328L48.4468 27.2392C48.5843 27.2262 48.7218 27.2233 48.8824 27.232C49.9141 27.297 50.8257 27.9328 51.2091 28.8519C51.4754 29.4906 51.4725 30.1928 51.2004 30.8301C50.9212 31.4847 50.393 31.9905 49.7158 32.2549L44.1449 34.4051C39.72 36.116 35.0636 36.983 30.2973 36.983H30.2987Z" fill="#282315"/>
<path d="M27.3108 30.3992C27.1791 30.3992 27.0532 30.327 26.9881 30.2027C26.8969 30.025 26.9664 29.8068 27.1444 29.7157L33.7094 26.3474C34.2086 26.0627 34.537 25.6697 34.634 25.2391C34.7237 24.8431 34.621 24.4183 34.3359 24.0108C33.9944 23.5238 33.4315 23.2117 32.8296 23.1741C32.64 23.1626 32.4418 23.1799 32.2551 23.2247C32.2435 23.2276 32.2334 23.2291 32.2218 23.2305C28.7129 23.716 26.541 24.3735 24.4399 25.0079C22.1436 25.7015 19.9745 26.3575 16.3093 26.7376C16.3035 26.7376 16.2992 26.7376 16.2934 26.7376L12.5862 26.9601C12.3865 26.9731 12.2158 26.8199 12.2028 26.6205C12.1912 26.4211 12.3431 26.2506 12.5428 26.2376L16.2428 26.0165C19.8342 25.6437 21.9699 24.9992 24.2301 24.3157C26.3543 23.6741 28.5508 23.0109 32.1061 22.5167C32.355 22.4603 32.6198 22.4386 32.873 22.4531C33.6934 22.5022 34.4618 22.9299 34.9292 23.5961C35.3343 24.1755 35.4761 24.7983 35.3401 25.398C35.1969 26.0309 34.7425 26.5916 34.061 26.9789C34.0566 26.9818 34.0523 26.9832 34.0479 26.9861L27.4757 30.3573C27.4222 30.3848 27.3658 30.3978 27.3108 30.3978V30.3992Z" fill="#282315"/>
</svg>
